# xmcd
#
# Track frame offsets:
#	150
#	15067
#	28662
#	43481
#	57964
#	70740
#	86388
#	103662
#	117419
#	130774
#	146396
#	160789
#	173195
#	188634
#	203126
#	217678
#	232832
#	249053
#	264814
#	277487
#	293559
#	308911
#	322856
#
# Disc length: 4527 seconds
#
# Revision: 0
# Processed by: cddbd v1.5.2PL0 Copyright (c) Steve Scherf et al.
# Submitted via: dBpowerAMP V4.0
#
DISCID=3011ad17
DTITLE=Various Artist - ERG Nu Country Traxx Vol. 241 CAN
DYEAR=2014
DGENRE=Country
TTITLE0=Keith Urban - Somewhere In My Car
TTITLE1=Little Big Town  - Day Drinking
TTITLE2=Hunter Hayes - Tattoo
TTITLE3=Terri Clark  - Some Songs
TTITLE4=Miranda Lambert Duet with Carrie Underwood  - Somethin' Bad
TTITLE5=Florida Georgia Line ft. Jason Derulo and Luke Bryan  - This is How We Roll [Remix]
TTITLE6=Tebey - Now I Do
TTITLE7=Thompson Square - I Can't Outrun You
TTITLE8=Gord Bamford - Where A Farm Used To Be
TTITLE9=Jerrod Niemann ft. Pitbull - Drink To That All Night
TTITLE10=JT Hodges - Already High
TTITLE11=Chasin' Crazy  - That's How We Do Summertime
TTITLE12=Jana Kramer - Love
TTITLE13=Bobby Wills - Never Didn't Love You
TTITLE14=Sam Hunt - Leave The Night On
TTITLE15=Deric Ruttan - Country Mile
TTITLE16=Austin Webb - Raise 'Em Up
TTITLE17=Sarah Davidson - Drink You Up
TTITLE18=Sweetwater Rain - Tailspin
TTITLE19=Tristan Horncastle - That Was Before
TTITLE20=Hey Romeo - Hello Patio
TTITLE21=Hayley - Don't Wanna Want You
TTITLE22=Lee Ann Womack - The Way I'm Livin'
EXTD=
EXTT0=
EXTT1=
EXTT2=
EXTT3=
EXTT4=
EXTT5=
EXTT6=
EXTT7=
EXTT8=
EXTT9=
EXTT10=
EXTT11=
EXTT12=
EXTT13=
EXTT14=
EXTT15=
EXTT16=
EXTT17=
EXTT18=
EXTT19=
EXTT20=
EXTT21=
EXTT22=
PLAYORDER=
